<svg xmlns="http://www.w3.org/2000/svg" width="1000" height="460" viewBox="0 0 1000 460"><rect width="1000" height="460" fill="#F8FAFC"/><rect width="1000" height="64" fill="#0F172A"/><text x="40" y="41" fill="white" font-family="Arial" font-size="24" font-weight="700">ContactFlow CRM</text><text x="280" y="41" fill="#CBD5E1" font-family="Arial" font-size="15">Contactos</text><text x="380" y="41" fill="#CBD5E1" font-family="Arial" font-size="15">Oportunidades</text><text x="540" y="41" fill="#CBD5E1" font-family="Arial" font-size="15">Atividades</text><text x="40" y="120" fill="#0F172A" font-family="Arial" font-size="28" font-weight="700">Contactos recentes</text><rect x="40" y="160" width="920" height="62" rx="8" fill="white" stroke="#E2E8F0"/><text x="72" y="199" fill="#0F172A" font-family="Arial" font-size="16">Nome</text><text x="330" y="199" fill="#0F172A" font-family="Arial" font-size="16">Empresa</text><text x="600" y="199" fill="#0F172A" font-family="Arial" font-size="16">Etapa</text><text x="810" y="199" fill="#0F172A" font-family="Arial" font-size="16">Próxima ação</text><g font-family="Arial" font-size="15"><rect x="40" y="238" width="920" height="58" rx="8" fill="white" stroke="#E2E8F0"/><text x="72" y="274">Ana Silva</text><text x="330" y="274">Norte Digital</text><rect x="600" y="254" width="92" height="27" rx="13" fill="#DBEAFE"/><text x="616" y="273" fill="#2563EB">Proposta</text><text x="810" y="274">Enviar orçamento</text><rect x="40" y="312" width="920" height="58" rx="8" fill="white" stroke="#E2E8F0"/><text x="72" y="348">Paulo Costa</text><text x="330" y="348">Oficina Central</text><rect x="600" y="328" width="92" height="27" rx="13" fill="#DCFCE7"/><text x="618" y="347" fill="#16A34A">Fechado</text><text x="810" y="348">Agendar reunião</text></g></svg>
