<svg xmlns="http://www.w3.org/2000/svg" width="1100" height="620" viewBox="0 0 1100 620"><rect width="1100" height="620" fill="#F8FAFC"/><rect width="1100" height="64" fill="#0F172A"/><text x="40" y="41" fill="white" font-family="Arial" font-size="24" font-weight="700">GestorWeb</text><text x="190" y="41" fill="#CBD5E1" font-family="Arial" font-size="15">Dashboard</text><text x="290" y="41" fill="#CBD5E1" font-family="Arial" font-size="15">Clientes</text><text x="375" y="41" fill="#CBD5E1" font-family="Arial" font-size="15">Produtos</text><text x="475" y="41" fill="#CBD5E1" font-family="Arial" font-size="15">Vendas</text><text x="563" y="41" fill="#CBD5E1" font-family="Arial" font-size="15">Relatórios</text><text x="40" y="122" fill="#0F172A" font-family="Arial" font-size="30" font-weight="700">Visão do negócio</text><text x="40" y="153" fill="#64748B" font-family="Arial" font-size="15">O projeto que construímos passo a passo.</text><g font-family="Arial"><rect x="40" y="195" width="245" height="125" rx="14" fill="#0F172A"/><text x="66" y="235" fill="#CBD5E1" font-size="13">RECEITA DO MÊS</text><text x="66" y="282" fill="white" font-size="31" font-weight="700">24.850 €</text><rect x="307" y="195" width="245" height="125" rx="14" fill="#2563EB"/><text x="333" y="235" fill="#DBEAFE" font-size="13">VENDAS</text><text x="333" y="282" fill="white" font-size="31" font-weight="700">148</text><rect x="574" y="195" width="245" height="125" rx="14" fill="#16A34A"/><text x="600" y="235" fill="#DCFCE7" font-size="13">CLIENTES</text><text x="600" y="282" fill="white" font-size="31" font-weight="700">86</text><rect x="841" y="195" width="220" height="125" rx="14" fill="#0891B2"/><text x="867" y="235" fill="#CFFAFE" font-size="13">STOCK</text><text x="867" y="282" fill="white" font-size="31" font-weight="700">45k</text><rect x="40" y="355" width="610" height="205" rx="14" fill="white" stroke="#E2E8F0"/><text x="68" y="392" fill="#0F172A" font-size="18" font-weight="700">Vendas ao longo do mês</text><polyline points="75,510 155,470 230,485 305,430 380,450 455,395 530,415 620,375" fill="none" stroke="#2563EB" stroke-width="5"/><line x1="70" y1="520" x2="620" y2="520" stroke="#CBD5E1"/><rect x="680" y="355" width="381" height="205" rx="14" fill="white" stroke="#E2E8F0"/><text x="708" y="392" fill="#0F172A" font-size="18" font-weight="700">Ações rápidas</text><rect x="708" y="425" width="145" height="42" rx="7" fill="#2563EB"/><text x="735" y="452" fill="white" font-size="14">Nova venda</text><rect x="870" y="425" width="145" height="42" rx="7" fill="#F1F5F9"/><text x="894" y="452" fill="#0F172A" font-size="14">Exportar</text></g></svg>
